<svg width="152" height="120" viewBox="0 0 152 120" fill="none" xmlns="http://www.w3.org/2000/svg">
<circle cx="76" cy="52" r="52" fill="#E9D7FE"/>
<g filter="url(#filter0_dd_1266_30154)">
<path fill-rule="evenodd" clip-rule="evenodd" d="M77.6 16C66.8273 16 57.2978 21.3233 51.4987 29.4829C49.605 29.0363 47.6301 28.8 45.6 28.8C31.4615 28.8 20 40.2615 20 54.4C20 68.5385 31.4615 80 45.6 80L45.62 80H109.6C121.971 80 132 69.9712 132 57.6C132 45.2288 121.971 35.2 109.6 35.2C108.721 35.2 107.854 35.2506 107.002 35.349C102.098 23.9677 90.7797 16 77.6 16Z" fill="#F9F5FF"/>
<ellipse cx="45.6" cy="54.3998" rx="25.6" ry="25.6" fill="url(#paint0_linear_1266_30154)"/>
<circle cx="77.6" cy="48" r="32" fill="url(#paint1_linear_1266_30154)"/>
<ellipse cx="109.6" cy="57.6002" rx="22.4" ry="22.4" fill="url(#paint2_linear_1266_30154)"/>
</g>
<circle cx="21" cy="19" r="5" fill="#F4EBFF"/>
<circle cx="18" cy="109" r="7" fill="#F4EBFF"/>
<circle cx="145" cy="35" r="7" fill="#F4EBFF"/>
<circle cx="134" cy="8" r="4" fill="#F4EBFF"/>
<g filter="url(#filter1_b_1266_30154)">
<rect x="52" y="62" width="48" height="48" rx="24" fill="#6941C6" fill-opacity="0.4"/>
<path d="M70 90.9998C70 91.3511 70 91.5268 70.0157 91.6795C70.1457 92.9473 71.0626 93.9945 72.3021 94.291C72.4513 94.3267 72.6255 94.3499 72.9737 94.3963L79.5656 95.2753C81.442 95.5254 82.3803 95.6505 83.1084 95.361C83.7478 95.1068 84.2803 94.6406 84.6168 94.0405C85 93.3569 85 92.4104 85 90.5174V81.4823C85 79.5893 85 78.6428 84.6168 77.9592C84.2803 77.3591 83.7478 76.8929 83.1084 76.6387C82.3803 76.3491 81.442 76.4742 79.5656 76.7244L72.9737 77.6033C72.6255 77.6498 72.4514 77.673 72.3021 77.7087C71.0626 78.0052 70.1457 79.0524 70.0157 80.3202C70 80.4729 70 80.6485 70 80.9998M76 81.9998L80 85.9998M80 85.9998L76 89.9998M80 85.9998H67" stroke="white" stroke-width="2" stroke-linecap="round" stroke-linejoin="round"/>
</g>
<defs>
<filter id="filter0_dd_1266_30154" x="0" y="16" width="152" height="104" filterUnits="userSpaceOnUse" color-interpolation-filters="sRGB">
<feFlood flood-opacity="0" result="BackgroundImageFix"/>
<feColorMatrix in="SourceAlpha" type="matrix" values="0 0 0 0 0 0 0 0 0 0 0 0 0 0 0 0 0 0 127 0" result="hardAlpha"/>
<feMorphology radius="4" operator="erode" in="SourceAlpha" result="effect1_dropShadow_1266_30154"/>
<feOffset dy="8"/>
<feGaussianBlur stdDeviation="4"/>
<feColorMatrix type="matrix" values="0 0 0 0 0.0627451 0 0 0 0 0.0941176 0 0 0 0 0.156863 0 0 0 0.03 0"/>
<feBlend mode="normal" in2="BackgroundImageFix" result="effect1_dropShadow_1266_30154"/>
<feColorMatrix in="SourceAlpha" type="matrix" values="0 0 0 0 0 0 0 0 0 0 0 0 0 0 0 0 0 0 127 0" result="hardAlpha"/>
<feMorphology radius="4" operator="erode" in="SourceAlpha" result="effect2_dropShadow_1266_30154"/>
<feOffset dy="20"/>
<feGaussianBlur stdDeviation="12"/>
<feColorMatrix type="matrix" values="0 0 0 0 0.0627451 0 0 0 0 0.0941176 0 0 0 0 0.156863 0 0 0 0.08 0"/>
<feBlend mode="normal" in2="effect1_dropShadow_1266_30154" result="effect2_dropShadow_1266_30154"/>
<feBlend mode="normal" in="SourceGraphic" in2="effect2_dropShadow_1266_30154" result="shape"/>
</filter>
<filter id="filter1_b_1266_30154" x="44" y="54" width="64" height="64" filterUnits="userSpaceOnUse" color-interpolation-filters="sRGB">
<feFlood flood-opacity="0" result="BackgroundImageFix"/>
<feGaussianBlur in="BackgroundImageFix" stdDeviation="4"/>
<feComposite in2="SourceAlpha" operator="in" result="effect1_backgroundBlur_1266_30154"/>
<feBlend mode="normal" in="SourceGraphic" in2="effect1_backgroundBlur_1266_30154" result="shape"/>
</filter>
<linearGradient id="paint0_linear_1266_30154" x1="25.9429" y1="37.4855" x2="71.2" y2="79.9998" gradientUnits="userSpaceOnUse">
<stop stop-color="#E9D7FE"/>
<stop offset="0.350715" stop-color="white" stop-opacity="0"/>
</linearGradient>
<linearGradient id="paint1_linear_1266_30154" x1="53.0286" y1="26.8571" x2="109.6" y2="80" gradientUnits="userSpaceOnUse">
<stop stop-color="#E9D7FE"/>
<stop offset="0.350715" stop-color="white" stop-opacity="0"/>
</linearGradient>
<linearGradient id="paint2_linear_1266_30154" x1="92.4" y1="42.8002" x2="132" y2="80.0002" gradientUnits="userSpaceOnUse">
<stop stop-color="#E9D7FE"/>
<stop offset="0.350715" stop-color="white" stop-opacity="0"/>
</linearGradient>
</defs>
</svg>
